# xmcd
#
# Track frame offsets:
#       150
#       16187
#       30122
#       38130
#       52780
#       68655
#       73530
#       87970
#       101270
#       122900
#       138205
#       158590
#       174435
#       194825
#       212985
#       237307
#       256060
#       263900
#       277722
#       298595
#
# Disc length: 4181 seconds
#
# Revision: 2
# Processed by: cddbd v1.4PL0 Copyright (c) Steve Scherf et al.
# Submitted via: WhereIsIt 3.26
#
DISCID=09105314
DTITLE=Steve Earle-Townes Van Zandt-Guy Clark - Together At The Bluebird Cafe
DYEAR=1900
DGENRE=
TTITLE0=Guy Clark - Baby Took a Limo to Memphis
TTITLE1=Steve Earle - My Old Friend the Blues
TTITLE2=Townes Van Zandt - Introduction to Katie Belle
TTITLE3=Townes Van Zandt - Katie Belle
TTITLE4=Guy Clark - The Cape
TTITLE5=Steve Earle - Introduction to Valentine's Day
TTITLE6=Steve Earle - Valentine's Day
TTITLE7=Townes Van Zandt - Ain't Leavin Your Love
TTITLE8=Guy Clark - Randall Knife
TTITLE9=Steve Earle - Tom Ames' Prayer
TTITLE10=Townes Van Zandt - The Interfaith Dental Clinic
TTITLE11=Townes Van Zandt - A Song For
TTITLE12=Guy Clark - Dublin Blues
TTITLE13=Steve Earle - I Ain't Ever Satisfied
TTITLE14=Townes Van Zandt - Panco And Lefty
TTITLE15=Guy Clark - Immigrant Eyes
TTITLE16=Steve Earle - Sirocco's Pizza
TTITLE17=Steve Earle - Mercenary Song
TTITLE18=Townes Van Zandt - Tecumseh Valley
TTITLE19=Steve Earle - Copperhead Road
EXTD=
EXTT0=
EXTT1=
EXTT2=
EXTT3=
EXTT4=
EXTT5=
EXTT6=
EXTT7=
EXTT8=
EXTT9=
EXTT10=
EXTT11=
EXTT12=
EXTT13=
EXTT14=
EXTT15=
EXTT16=
EXTT17=
EXTT18=
EXTT19=
PLAYORDER=
